<svg width="650" height="629" viewBox="0 0 650 629" fill="none" xmlns="http://www.w3.org/2000/svg">
<path d="M212.5 602.5C212.5 619 199 632.203 164 627C127 621.5 95 619.5 94 599.5C94 585.969 117.811 578 151.5 578C185.189 578 212.5 586 212.5 602.5Z" fill="black"/>
<path d="M103 148C103 162.083 102.9 185 98.2054 185C93.511 185 72.2054 148 96.2054 145.5C98.7054 131.5 98.7054 130 108.705 126C113.4 126 103 134.5 103 148Z" fill="black"/>
<path d="M199 577C199 580.866 219 605 204.5 589C198.425 589 177.5 577.866 177.5 574C177.5 570.134 179 545.5 217 556.5C225 556.5 199 573.134 199 577Z" fill="black"/>
<path d="M160.918 526.5C160.918 556.6 140.449 583.5 122.5 583.5C117.5 565.5 95.9177 553 95.9177 526.5C95.9177 496.401 125 448.588 138 450.5C155 453 160.918 496.401 160.918 526.5Z" fill="black"/>
<path d="M122 579.5C122 584.194 102.747 595.5 97.4999 595.5C91 602 98.5 585 99 579.5C99 574.806 97 547.5 102 538C107.247 538 122 574.806 122 579.5Z" fill="black"/>
<path d="M108 545C108 548.866 106.59 564.5 103 564.5C98.5001 559 98.7143 552 97.0001 546C95.9382 542.283 94.9103 523.5 98.5001 523.5C102.09 523.5 108 541.134 108 545Z" fill="black"/>
<path d="M249.5 520C240.5 541 183.315 596 161.5 596C139.685 596 122 571.6 122 541.5C122 511.4 140.685 469.5 162.5 469.5C186 482 275.5 476 249.5 520Z" fill="black"/>
<path d="M178 474.5C178 481.956 163.456 488 156 488C148.544 488 127 447.5 140.5 451C144.5 452.5 156.5 459.5 162.5 463C172.5 468.5 172 469.5 178 474.5Z" fill="black"/>
<path d="M376 510.5C376 545 302 551.5 262.5 553C220 555.5 172.5 549 181 505C181 472.415 230.288 196 269.5 196C308.712 196 376 477.915 376 510.5Z" fill="black"/>
<path d="M466 592.5C466 609.345 445 622 412 623C361.5 617 332.5 603 329 578.5C329 561.655 382.177 562 412 562C441.823 562 466 575.655 466 592.5Z" fill="black"/>
<path d="M432 557C432 566.113 342.232 587 334.5 587C326.768 587 329 567.613 329 558.5C329 549.387 327.768 529 335.5 529C343.232 529 432 547.887 432 557Z" fill="black"/>
<path d="M451 565C454.5 578 473.5 588.5 456 583C443.85 583 408.5 566.203 408.5 553.5C408.5 540.797 438.85 531 451 531C450 538.5 451 552.297 451 565Z" fill="black"/>
<path d="M453 505.5C451.421 535.5 450.323 567 420.5 567C390.677 567 344 538.51 344 512C344 485.49 396.677 463.5 426.5 463.5C451.5 473 454.5 477 453 505.5Z" fill="black"/>
<path d="M430.011 463.706C429.725 464.773 421.1 464.429 419.5 464C423 463 425 463.5 426.63 462.801C426.916 461.734 434 454.5 430.5 460.5C432.1 460.929 430.297 462.64 430.011 463.706Z" fill="black"/>
<path d="M222 179C222 184 219.633 187.241 210.5 188.5C205.051 189.251 198.756 183.353 200 179C201 175.5 202 175 210 175C218 175 222 176.515 222 179Z" fill="black"/>
<path d="M52 143.5C49 154.5 46 155.5 37 155C27 156 26 150.5 25 145.5C25 140.253 33.5 129 39.5 129.5C47.5 129.5 52 129.5 52 143.5Z" fill="black"/>
<path d="M32 109.5C33.7133 115.04 64.5 146 41.5 126C33.768 126 29.5 117 26.5 110C23.0099 101.856 26 92 28.5001 93C30.5001 97.5 30.0739 103.272 32 109.5Z" fill="black"/>
<path d="M46.5 130C46.5 132.761 35.3137 136.5 32 136.5C24.5 142 35.5 129.761 35.5 127C35.5 124.5 28.5 116 34 121.5C37.3137 121.5 46.5 127.238 46.5 130Z" fill="black"/>
<path d="M44.5 47C51 53.4999 59 63.5 58.0001 65.0001C52 62 48 56.5 41.5 49.5C34.9999 42.4999 27 34.5 26 31.0001C32 34 36.2159 38.716 44.5 47Z" fill="black"/>
<path d="M10 38.5C10 41.8137 10.933 44 9 44C7.067 44 6.5 41.3137 6.5 38C6.5 37.8093 7.5 29 10 29C19.5 29 10 31 10 38.5Z" fill="black"/>
<path d="M27 31.5001C22.5 33 20.6225 33 16 33C9.50003 33 8.50001 33.0001 11 31C8.00003 28.5001 13.2386 29 16 29C27 29 27 28.5001 27 31.5001Z" fill="black"/>
<path d="M36.1216 39.8862C35.0171 39.8862 34.6846 39.1231 28.5 35C27 34 23.5 29 25.5 29C26.6045 29 26.0247 28.7893 29.1216 31.8862C30.4884 33.2531 37.2262 39.8862 36.1216 39.8862Z" fill="black"/>
<path d="M22.5 50C28.9999 51 31.2483 57.2484 50 76C61.5 87.5 78.5 103.5 74.5 106.5C64 100.5 55.2627 93.1958 45 82C39.5 76 19.5 61.5 22.5 50Z" fill="black"/>
<path d="M452 484.5C452 491.127 438.418 481 434 481C429.582 481 426 475.627 426 469C426 462.372 430.5 457.5 433 457.5C443 459 450.5 472.5 452 484.5Z" fill="black"/>
<path d="M83.0001 138C101 152.5 98.5001 157 93 158.5C90.2609 160.365 77.6128 151.953 73.0001 148C69.5 145 68.5 137.5 72 134C77.0001 133 80.0001 136 83.0001 138Z" fill="black"/>
<path d="M650 86.8179C645.5 101.318 599 117.5 593.5 126.818C583.559 126.818 552 127.904 552 121C552 114.096 582.51 105.122 593.5 101.318C606.5 96.8179 650 79.9143 650 86.8179Z" fill="black"/>
<path d="M604 119.5C602 137 603.5 142.5 579 143.5C570.5 144.5 552 126.247 552 121C554 116.5 567.73 114 578.5 114C589.27 114 636.5 94.5 604 119.5Z" fill="black"/>
<path d="M344 20C344 31.5 352 42.5 358 53C347.5 41.5 327.5 23.5 283 2.49999C295 0.999845 302.639 7.7479 318 5.5C338.5 2.49997 344 5.5 344 20Z" fill="black"/>
<path d="M347 41.5001C337.5 35.0001 323.5 47.0001 315 66.0001C309.753 66.0001 298 32.2468 298 27.0001C296.5 25.5001 310.5 12.5 295 8.00006C300.247 8.00006 347 36.2534 347 41.5001Z" fill="black"/>
<path d="M292 110C272.833 137.031 266 155 240 163C223.5 158.5 244.465 136.77 260 107.5C288.5 34.5 302 5.99988 324 20.5001C335.464 26.5847 311.5 82.5 292 110Z" fill="black"/>
<path d="M293.682 73.6822C289.915 84.6513 255.047 128.22 256 122.5C258 110.5 272.041 76.8424 273.821 66.8611C275.858 55.4433 296.515 24.1162 302 25.9998C307.484 27.8834 297.449 62.7131 293.682 73.6822Z" fill="black"/>
<path d="M577 168C577 181 576 180 570 180C566.5 181 555.781 177.139 555.5 163C555.301 153 565.686 152 569 152C572.314 152 577 156.5 577 168Z" fill="black"/>
<path d="M205.5 17.5C201.348 20.2319 191.5 63.5 182.5 63.5C177.5 63.5 181 17.4706 181 12.5C181 7.52944 191.559 0 201.5 0C211.441 0 224.5 5 205.5 17.5Z" fill="black"/>
<path d="M189.5 105.5C193.473 136.151 200 154.5 197.5 157C179 152 179.5 149 177.5 132.5C177.5 108.752 161 71.5 184.5 52.5C192.5 39 186 78.5 189.5 105.5Z" fill="black"/>
<path d="M190.5 61.9998C185.319 85.4998 188.5 130.5 178.348 81.4142C174.842 80.6413 168 90.4998 176 57.4998C183 46.5 177 6.99997 192.5 28.4998C207.5 6.50006 192.997 50.6738 190.5 61.9998Z" fill="black"/>
<path d="M213.5 608C213.5 625.397 188.665 630.57 153 628.5C119.643 626.564 92.7725 614.143 94 597.5C95.2796 580.15 122.087 554 155.5 554C188.913 554 213.5 590.603 213.5 608Z" fill="black"/>
<path d="M347.057 213.252C325.601 252.191 81.5 217.5 170.5 179.5C112 182 219.006 227.851 286.5 181.5C328 153 337.5 127.5 337.5 95C346.394 99.9007 368.513 174.313 347.057 213.252Z" fill="black"/>
<path d="M202.5 202C202.5 227.681 128.748 250 105 250C81.2517 250 102.5 168.681 102.5 143C123 165.5 138.5 163 166 156C178.5 175.5 177.5 188.5 202.5 202Z" fill="black"/>
<path d="M98.5 151C98.5 153.485 88.933 150.649 87 150.649C85.067 150.649 83.5 148.635 83.5 146.149C83.5 143.664 75.067 135 77 135C78.933 135 99.5 149.5 98.5 151Z" fill="black"/>
<path d="M377.5 99.5C385.465 116.199 398.05 148.791 384.84 155.092C371.631 161.392 345.465 111.699 337.5 95C341.5 92.5 360 137 376 133C384.5 130.875 380.5 111.5 377.5 99.5Z" fill="black"/>
<path d="M472 230.5C472 246.516 301.792 292 285.5 292C269.208 292 280 290.016 280 274C280 257.984 331.708 113 348 113C371.5 165 469 138.5 472 230.5Z" fill="black"/>
<path d="M76.5001 154C82.4828 127.08 125.903 259.425 87.5001 251.5C55.5001 244.897 41.5001 196 19.0002 160.5C34.0002 166 33.5002 182 52.5003 186.5C69.0001 179 74.5 163 76.5001 154Z" fill="black"/>
<path d="M89 151.5C89 154.261 102.038 192 99 192C95.9624 192 81.5002 155 78.0001 152C75.9034 150.203 71.4626 147.5 74.5001 147.5C77.5377 147.5 89 148.739 89 151.5Z" fill="black"/>
<path d="M283 240.5C283 259.278 190.078 293 147 293C97.5 246 49 244 79.4998 238C79.4998 219.222 125.422 208 168.5 208C211.578 208 283 221.722 283 240.5Z" fill="black"/>
<path d="M242.692 289C242.692 303.636 201.658 475.5 181.5 475.5C190 320.5 194 322.5 156 292C156 277.364 186.034 262.5 206.192 262.5C226.351 262.5 242.692 274.364 242.692 289Z" fill="black"/>
<path d="M153.5 374.5C141.5 410.5 143 454.5 138.5 458C133.5 484 131.5 398.5 141.5 382.5C153.5 350 156.5 338 151 293C164.5 318.5 156 359.5 153.5 374.5Z" fill="black"/>
<path d="M152 287.5C152 292.194 154.525 301.057 155 303C160.5 325.5 156 312 145.5 291C145.5 286.306 138.873 281.495 145.5 281.495C152.127 281.495 152 282.806 152 287.5Z" fill="black"/>
<path d="M574 148C580.5 187 575 172 556.5 165C553.186 165 559 154 560 145.5C567.5 133 531.5 107.5 573 124C616.5 145 574 140.857 574 148Z" fill="black"/>
<path d="M406 383.5C406 445.632 433.5 531.5 406 525C382.252 525 264 380.132 264 318C264 255.868 391.752 235 415.5 235C408 278.5 406 311 406 383.5Z" fill="black"/>
<path d="M519.5 119.5C519.5 141.591 541.5 209.946 447 245.5C396.5 264.5 393.5 157.5 377.5 99.5C394 121.5 394.5 141 463 145C481 145 519.5 141 519.5 119.5Z" fill="black"/>
<path d="M545 144.5C545 151.404 525.747 157.5 520.5 157.5C515.253 157.5 511 151.904 511 145C511 138.097 515.753 119.5 521 119.5C519.5 142.5 536.5 143 545 144.5Z" fill="black"/>
<path d="M577 186.5C577 209 527 239.5 466 253.5C447.775 253.5 499 144 545 145C537.5 153 525 189.5 552.5 194.5C562.831 196.378 564 190.5 577 186.5Z" fill="black"/>
<path d="M480.5 250C453 256 423 282 421 317C408.85 317 338.5 274.575 338.5 268.5C338.5 262.425 392.85 205 405 205C417.15 205 480.5 243.925 480.5 250Z" fill="black"/>
<path d="M414.5 342C414 337.5 415 319 412 318.5C408 322.5 406 347.523 406 342C404 325 406.753 301.5 412 301.5C415.5 300.5 420.5 342 414.5 342Z" fill="black"/>
<path d="M441.5 428C438.5 458 438 457.5 434 462C420 489.5 437.5 449.5 436.5 432.5C434.824 404 426 381.5 414 354C433.5 383 440.5 399.5 441.5 428Z" fill="black"/>
<path d="M420.5 357C420.5 371.359 435 377 437.5 401.5C436 401.5 420.427 376.5 414 354C414 339.641 412.425 310 418.5 310C424.575 310 417.5 342 420.5 357Z" fill="black"/>
<path d="M638 70.4999C640 75 608.224 84.5365 573.5 96.4998C552 102.5 537.5 107 515 128.5C520.5 104.5 546.231 99.7593 572 91.4998C606.974 80.2898 634 64.5 638 70.4999Z" fill="black"/>
<path d="M103.5 143C103.5 145.209 109 151.5 103 147C100.791 147 99 145.209 99 143C99 140.791 100.791 139 103 139C105.209 139 103.5 140.791 103.5 143Z" fill="black"/>
<path d="M82 151.5C82 153.433 80.2092 155 78 155C75.7909 155 77 153.433 77 151.5C74.5001 147.5 66 144 78 148C80.2092 148 82 149.567 82 151.5Z" fill="black"/>
<path d="M141 450.5C141 454.642 139.709 458.5 137.5 458.5C135.291 458.5 134.5 455.642 134.5 451.5C134.5 446.155 135.791 441 138 441C140.209 441 142 439 141 450.5Z" fill="black"/>
<path d="M156 308C156 310.209 157.433 313.5 155.5 313.5C155 323 153 309.5 152 305.5C150.5 302 147.5 295.5 149.5 297.5C151.433 297.5 156 305.791 156 308Z" fill="black"/>
<path d="M437 458.5C442.5 462 456 477 434 465C433.448 465 432 462.261 432 459.5C432 456.739 437.448 452 438 452C438.552 452 438.5 454 437 458.5Z" fill="black"/>
</svg>
